<svg width="1920" height="1080" viewBox="0 0 1920 1080" fill="none" xmlns="http://www.w3.org/2000/svg">
<g clip-path="url(#clip0_8_680)">
<path d="M456.712 500.273C456.712 500.273 415.079 431.915 370.722 420.971C281.077 398.852 263.974 631.869 263.974 631.869C263.974 631.869 217.675 552.783 169.318 552.041C83.515 550.726 92.25 807 92.25 807M456.712 500.273L472 411M456.712 500.273L367.41 484.99" stroke="black" stroke-width="20"/>
<path d="M464.179 581L404.701 831.153C259.377 734.275 326.334 1044.94 343.304 1112.13C153.661 950.726 182.591 1184.91 269.491 1311M464.179 581L396.282 623.773M464.179 581L507 648.821" stroke="black" stroke-width="20"/>
<path d="M701.982 932.418C652.059 911.875 595.913 1017.55 568.062 976.702C534.437 927.384 678.28 932.137 680.163 872.457C682.179 808.542 529.849 816.48 558.828 762.531C587.389 709.361 656.676 835.069 707.927 803.127C765.821 767.045 647.415 642.31 714.274 628.791C782.173 615.062 710.924 771.209 776.005 794.785C838.667 817.484 885.799 665.046 927.897 716.65C965.103 762.258 804.056 791.84 812.01 864.763C819.788 936.075 985.263 921.203 951.341 984.487C917.307 1047.98 832.302 889.413 774.425 932.37C728.856 966.191 803.357 1064.24 747.079 1071.49C687.175 1079.2 757.792 955.385 701.982 932.418Z" stroke="black" stroke-width="20"/>
<path d="M159 281.462C159 281.462 180.009 212.462 238.703 191.19C277.19 177.242 329.943 201.063 329.943 201.063C329.943 201.063 345.197 157.026 367.347 145.704C430.573 113.388 489 172.141 489 172.141M159 281.462C159 281.462 287.047 336.653 357.559 313.192C445.518 283.926 489 172.141 489 172.141M159 281.462C159 281.462 273.896 262.607 338.333 241.26C402.769 219.914 489 172.141 489 172.141" stroke="black" stroke-width="20"/>
<path d="M541.7 372.633C494.811 304.406 554.519 159.621 699.821 129C701.006 328.882 644.542 377.853 541.7 372.633ZM541.7 372.633C544.93 345.867 565.194 276.909 620.416 215.199" stroke="black" stroke-width="20"/>
<path d="M633.527 556.432L554 516.071M554 516.071L594.037 435.901M554 516.071C659.25 484.067 728.978 450.907 773.619 420.337M773.619 420.337C861.403 360.223 852.177 310.127 825.295 298.53C797.245 286.43 749.971 316.246 773.619 420.337ZM773.619 420.337C782.844 460.946 802.864 512.86 839.032 578" stroke="black" stroke-width="20"/>
<path d="M92.3607 347L34.6598 397.952L-35.1885 351.076L-19.1692 426.486L-102 461.133L-4.31352 478.457L-10.3873 561L40.2275 491.705L92.3607 519.729L75.1516 466.229L145 446.357L75.1516 426.486L92.3607 347Z" stroke="black" stroke-width="20"/>
<path d="M1243.43 727.958L1217.41 593M1290.07 692.186L1306.88 624.436M1290.07 1030.93L1325.85 1206M1243.43 1084.59L1232.05 1157.76M1397.43 817.774L1501 763.729M1111.13 817.774L994 744.217M1060.15 845.029H1004.84M1137.15 979.987L1036.84 1064M1408.82 953.119L1488.53 993.575M1258.76 817.774L1342.62 744.217L1317.61 858.966L1419.12 887.653L1317.61 916.341L1342.62 993.575L1266.85 953.119L1193.3 1053.16L1202.12 933.994L1060.15 908.985L1180.53 858.966L1157.25 750.102L1258.76 817.774Z" stroke="black" stroke-width="20"/>
<path d="M896 490.205L988.591 273C988.591 273 934.58 630 1063.94 630C1136.24 630 1140.64 455.598 1140.64 455.598M1140.64 455.598L1061.48 526.186M1140.64 455.598L1211 535.019" stroke="black" stroke-width="20"/>
<path d="M811 22.0027L872.943 -145H1028.42L985.681 -53.1452H1092L864.465 201L945.426 22.0027H811Z" stroke="black" stroke-width="20"/>
<path d="M1214.67 352C1306.95 261.162 1371.71 107.819 1275.19 74.0672C1178.67 40.3153 1140.31 228.057 1188.16 216.575C1236 205.093 1144.85 82.8818 1089.95 122.831C1035.05 162.78 1063.02 282.898 1214.67 352Z" stroke="black" stroke-width="20"/>
<path d="M1506.8 342C1506.8 342 1601.95 314.911 1626.79 254.193C1651.63 193.476 1582.41 161.999 1530.12 201.449C1493.75 158.352 1438.4 163.584 1433.24 221.499C1428.09 279.414 1506.8 342 1506.8 342Z" stroke="black" stroke-width="20"/>
<path d="M1953.85 624.187L2015.26 658.073M2152.41 783.992L2111.91 736.523M2031.39 856L2057.15 748.509M2178.76 602.632L2121.9 648.408M1997.24 492L2048.39 627.902M2279 637.088L2133.48 673.514M2105.28 838.869L2084.85 748.493M1893 691.616L2008.29 689.96M2105.31 533.587L2085.41 624.819M1978.49 759.745L2021.56 726.975M2226.98 747.739L2130.9 711.496M2121.9 648.408C2127.28 655.515 2131.32 663.958 2133.48 673.514M2121.9 648.408C2112.74 636.313 2099.69 628.086 2085.41 624.819M2133.48 673.514C2134.19 676.613 2134.69 679.828 2134.98 683.153C2135.87 693.505 2134.32 703.054 2130.9 711.496M2130.9 711.496C2123.06 730.853 2105.39 744.399 2084.85 748.493M2084.85 748.493C2080.86 749.288 2076.76 749.727 2072.6 749.782C2067.17 749.855 2062.02 749.423 2057.15 748.509M2057.15 748.509C2042.21 745.699 2030.08 738.325 2021.56 726.975M2021.56 726.975C2015.05 718.288 2010.65 707.272 2008.74 694.191C2008.54 692.774 2008.38 691.364 2008.29 689.96M2008.29 689.96C2007.48 678.566 2010.16 667.652 2015.26 658.073M2015.26 658.073C2022.46 644.566 2034.48 633.712 2048.39 627.902M2048.39 627.902C2054.05 625.537 2060.02 624.008 2066.11 623.476C2072.63 622.906 2079.14 623.384 2085.41 624.819" stroke="black" stroke-width="20"/>
<path d="M1622.5 411C1484.38 411 1416 461.494 1416 523.782C1416 562.355 1443.58 596.406 1496.54 616.742L1468.29 692L1558.37 632.239C1577.85 635.056 1599.24 636.565 1622.5 636.565C1757.09 636.565 1829 586.07 1829 523.782C1829 463.907 1756.92 396.248 1592.63 451.042" stroke="black" stroke-width="20"/>
<path d="M1877.96 364H1759.34C1787.99 240.895 1768.57 128.966 1833.25 131.028C1858.88 131.845 1884.52 159.532 1877.96 212.124M1748 253.31L1840.51 252.687" stroke="black" stroke-width="20"/>
<path d="M1497 515.018C1497 515.018 1501.84 560.72 1523.44 566.594C1551.58 574.244 1562.06 501.804 1562.06 501.804C1562.06 501.804 1575.85 566.966 1606.13 566.594C1638.38 566.198 1643.91 492 1643.91 492C1643.91 492 1659.44 574.135 1696.79 572.988C1732.42 571.895 1748 496.263 1748 496.263" stroke="black" stroke-width="20"/>
<path d="M-19.6322 -4.23327C-98.0239 -31.753 -146.324 17.2541 -105.575 53.3546M69.7589 126.706C54.7143 144.867 25.9888 157.687 -25.0536 154.642C-73.4114 151.756 -98.2222 135.571 -108.988 116.149M69.7589 126.706C76.9842 159.653 66.6159 224.153 -30.1284 215.587C-53.9733 213.476 -71.7561 208.241 -84.7944 201.088M69.7589 126.706C86.7346 106.215 84.5546 75.2456 79.0058 56.0772M-108.988 116.149C-120.68 95.0575 -114.886 69.2343 -105.575 53.3546M-108.988 116.149C-120.171 139.424 -124.656 179.22 -84.7944 201.088M-238.632 -42.9513C-230.722 -42.9513 -223.511 -43.8581 -216.908 -45.5436M-82.2982 200.326C-83.1289 200.585 -83.961 200.839 -84.7944 201.088M-216.908 -45.5436C-127.99 -68.2436 -150.978 -239.119 -65.2567 -231.77C22.7823 -224.222 -54.499 -58.0463 -54.499 -58.0463C-3.71649 -65.4681 91.1128 -54.0466 93.9119 9.35239C94.7884 29.2034 89.0757 44.5627 79.0058 56.0772M-216.908 -45.5436C-216.908 -45.5436 -225.944 -75.395 -250.959 -77.3308C-341.88 -84.3668 -322.587 212.573 -259.033 228.733C-211.993 240.694 -198.684 201.436 -198.684 201.436M-198.684 201.436C-212.698 196.276 -224.407 188.9 -233.89 179.481M-198.684 201.436C-168.412 212.584 -125.054 213.09 -84.7944 201.088M79.0058 56.0772C38.5141 102.378 -62.4646 91.5473 -105.575 53.3546" stroke="black" stroke-width="20"/>
<path d="M1638 1089.52L1671.16 848.655L1710.73 1178V739L1774.42 1111.07L1789.87 882.308L1838.48 1043.77L1865.61 918.608L1932.69 1004.06L1981.3 918.608L2048 964.361" stroke="black" stroke-width="20"/>
</g>
<defs>
<clipPath id="clip0_8_680">
<rect width="1920" height="1080" fill="white"/>
</clipPath>
</defs>
</svg>
