<svg width="1920" height="1080" viewBox="0 0 1920 1080" fill="none" xmlns="http://www.w3.org/2000/svg">
<g clip-path="url(#clip0_43_125)">
<g opacity="0.05">
<mask id="mask0_43_125" style="mask-type:alpha" maskUnits="userSpaceOnUse" x="445" y="160" width="1434" height="1337">
<path d="M767.882 913.128C767.882 913.128 787.793 1271.41 783.812 1301.26C779.829 1331.13 767.882 1360.98 751.953 1370.92C736.024 1380.88 705.457 1380.08 696.202 1388.84C689.192 1395.48 694.21 1398.8 694.21 1398.8C694.21 1398.8 677.55 1411.54 686.86 1422.54C697.922 1435.6 718.103 1426.66 718.103 1426.66C718.103 1426.66 714.587 1438.17 732.118 1441.18C748.883 1444.06 825.625 1428.65 837.572 1410.73C849.518 1392.82 907.261 1193.77 903.278 1108.19C899.297 1022.6 905.27 988.768 905.27 988.768L767.882 913.128Z" fill="#D6C4A5"/>
<path d="M1731.59 1157.95C1731.59 1157.95 1737.56 1257.48 1731.59 1299.27C1725.61 1341.07 1713.67 1378.89 1701.72 1384.85C1689.77 1390.83 1640 1406.75 1628.05 1404.76C1616.1 1402.77 1620.08 1388.84 1620.08 1388.84C1620.08 1388.84 1610.13 1394.81 1596.19 1386.84C1582.25 1378.89 1588.23 1370.92 1588.23 1370.92C1588.23 1370.92 1570.31 1370.92 1580.26 1356.99C1590.22 1343.06 1622.07 1353.01 1634.02 1337.09C1645.97 1321.16 1653.93 1223.64 1643.98 1197.76C1634.02 1171.89 1528.49 1076.35 1482.7 980.816C1436.9 885.269 1430.93 845.456 1430.93 845.456L1570.31 857.41L1721.63 1056.44L1731.59 1157.95Z" fill="#D6C4A5"/>
<path d="M943.107 457.34C943.107 457.34 986.91 471.27 1026.73 509.09C1066.56 546.893 1188.01 550.878 1249.74 544.918C1311.47 538.941 1417 507.098 1417 507.098C1417 507.098 1590.22 499.128 1671.86 554.863C1753.5 610.597 1817.21 728.026 1817.21 791.712C1817.21 855.416 1795.31 948.953 1819.2 1040.52C1843.1 1132.08 1865 1187.81 1872.96 1241.55C1880.93 1295.3 1882.92 1386.84 1866.99 1408.74C1851.06 1430.64 1817.21 1448.55 1803.27 1440.58C1789.34 1432.63 1795.31 1424.66 1795.31 1424.66C1795.31 1424.66 1777.01 1427.66 1767.7 1420.58C1758.48 1413.58 1767.43 1400.79 1767.43 1400.79C1739.89 1392.32 1793.32 1364.96 1793.32 1364.96C1793.32 1364.96 1793.32 1291.31 1781.37 1259.47C1769.42 1227.61 1727.61 1159.94 1689.78 1124.11C1651.95 1088.28 1532.48 937.017 1510.58 895.212C1488.68 853.424 1418.99 857.408 1371.2 887.259C1323.41 917.11 1211.91 986.774 1146.2 998.728C1080.49 1010.66 1038.68 1006.68 1038.68 1006.68C1038.68 1006.68 1030.71 1219.66 1020.76 1289.32C1010.8 1358.98 1010.8 1446.56 998.858 1460.49C986.91 1474.42 928.082 1500.88 905.274 1496.32C888.594 1492.98 895.319 1482.39 895.319 1482.39C895.319 1482.39 877.398 1490.34 861.469 1486.37C845.54 1482.39 857.488 1470.45 857.488 1470.45C857.488 1470.45 849.933 1463.81 853.505 1454.51C858.096 1442.58 903.283 1424.66 903.283 1424.66C903.283 1424.66 921.203 1335.09 919.212 1285.33C917.221 1235.58 889.345 1044.5 873.416 1024.59C857.488 1004.69 744.14 938.822 690.232 841.487C628.508 730.018 624.525 618.549 624.525 618.549L943.107 457.34Z" fill="#EADAB8"/>
<path d="M943.107 457.341C943.107 457.341 943.212 457.375 943.345 457.409C943.367 457.409 943.398 457.426 943.423 457.443C943.785 457.562 944.471 457.783 945.425 458.141C945.517 458.175 945.611 458.209 945.706 458.243C946.691 458.601 947.948 459.061 949.432 459.657C949.609 459.725 949.789 459.793 949.972 459.861C951.5 460.474 953.254 461.189 955.21 462.041C955.438 462.126 955.671 462.228 955.905 462.33C957.905 463.198 960.101 464.203 962.462 465.31C962.751 465.446 963.041 465.582 963.334 465.736C965.727 466.877 968.282 468.137 970.974 469.55C971.311 469.72 971.652 469.891 971.992 470.078C973.354 470.793 974.739 471.525 976.163 472.309C976.175 472.326 976.188 472.326 976.202 472.343C977.609 473.109 979.053 473.943 980.513 474.778C980.888 474.999 981.265 475.204 981.641 475.425C983.132 476.293 984.641 477.196 986.177 478.133C986.191 478.15 986.203 478.149 986.216 478.166C987.736 479.086 989.286 480.074 990.845 481.061C991.247 481.317 991.651 481.589 992.054 481.845C993.63 482.866 995.216 483.922 996.822 485.012C997.822 485.693 998.832 486.408 999.843 487.106C1000.07 487.277 1000.3 487.43 1000.53 487.583C1002.45 488.946 1004.39 490.376 1006.34 491.857C1006.35 491.857 1006.36 491.874 1006.37 491.874C1007.88 493.015 1009.38 494.173 1010.89 495.365C1012.6 496.71 1014.32 498.107 1016.03 499.537C1017.63 500.882 1019.24 502.279 1020.84 503.692C1021.17 503.999 1021.51 504.288 1021.84 504.595C1023.47 506.042 1025.09 507.524 1026.7 509.056C1026.71 509.056 1026.73 509.073 1026.74 509.09C1026.75 509.107 1026.78 509.124 1026.8 509.141C1027.99 510.265 1029.25 511.355 1030.58 512.428C1031.04 512.802 1031.55 513.143 1032.03 513.501C1032.95 514.199 1033.87 514.914 1034.86 515.595C1035.46 516.004 1036.11 516.396 1036.73 516.804C1037.65 517.4 1038.57 517.996 1039.54 518.575C1040.23 518.984 1040.97 519.376 1041.69 519.784C1042.65 520.329 1043.6 520.857 1044.59 521.385C1045.37 521.777 1046.17 522.168 1046.97 522.56C1047.97 523.054 1048.97 523.548 1050.01 524.024C1050.85 524.399 1051.71 524.774 1052.57 525.148C1053.62 525.608 1054.68 526.068 1055.76 526.493C1056.65 526.868 1057.56 527.209 1058.47 527.566C1059.58 527.992 1060.69 528.401 1061.82 528.809C1062.76 529.15 1063.71 529.491 1064.67 529.814C1065.83 530.206 1067 530.597 1068.18 530.972C1069.16 531.278 1070.14 531.585 1071.13 531.891C1072.34 532.266 1073.57 532.624 1074.8 532.981C1075.81 533.271 1076.82 533.543 1077.84 533.833C1079.11 534.173 1080.38 534.497 1081.67 534.82C1082.7 535.093 1083.74 535.365 1084.78 535.604C1086.1 535.927 1087.44 536.234 1088.77 536.54C1089.82 536.779 1090.86 537.017 1091.92 537.255C1093.31 537.545 1094.72 537.834 1096.13 538.124C1097.16 538.328 1098.18 538.533 1099.22 538.737C1100.72 539.026 1102.25 539.299 1103.77 539.571C1104.74 539.742 1105.7 539.929 1106.68 540.099C1108.39 540.389 1110.12 540.661 1111.84 540.934C1112.66 541.053 1113.46 541.206 1114.28 541.325C1116.83 541.7 1119.4 542.075 1121.99 542.415C1122 542.415 1122 542.415 1122.01 542.415C1140.66 544.901 1160.05 546.298 1178.69 546.86H1178.69C1184.01 547.03 1189.27 547.115 1194.43 547.149C1194.44 547.149 1194.45 547.149 1194.46 547.149C1197.04 547.166 1199.6 547.166 1202.14 547.149C1204.67 547.132 1207.18 547.098 1209.65 547.064C1212.13 547.013 1214.57 546.962 1216.97 546.894C1221.78 546.74 1226.44 546.553 1230.92 546.315C1237.64 545.94 1243.95 545.463 1249.74 544.918C1311.47 538.941 1417 507.098 1417 507.098C1417 507.098 1417.89 507.047 1419.54 506.996C1419.61 506.996 1419.68 506.996 1419.75 506.996C1420.29 506.979 1420.9 506.962 1421.58 506.945C1421.69 506.928 1421.81 506.928 1421.91 506.928C1422.56 506.911 1423.27 506.894 1424.03 506.877C1424.14 506.877 1424.24 506.859 1424.35 506.859C1425.18 506.842 1426.09 506.825 1427.06 506.808C1427.25 506.808 1427.45 506.809 1427.65 506.791C1428.64 506.791 1429.68 506.774 1430.81 506.757C1430.83 506.757 1430.84 506.757 1430.87 506.757C1432 506.74 1433.21 506.723 1434.46 506.723C1434.71 506.723 1434.95 506.723 1435.2 506.706C1436.49 506.706 1437.83 506.706 1439.23 506.706C1439.29 506.706 1439.36 506.706 1439.42 506.706C1440.76 506.706 1442.16 506.706 1443.6 506.706C1443.9 506.706 1444.19 506.706 1444.48 506.706C1445.99 506.723 1447.54 506.74 1449.15 506.757C1449.36 506.757 1449.58 506.757 1449.8 506.757C1451.27 506.791 1452.78 506.808 1454.34 506.843C1454.64 506.843 1454.94 506.842 1455.24 506.859C1456.94 506.877 1458.67 506.928 1460.45 506.962C1460.81 506.979 1461.18 506.979 1461.55 506.996C1463.22 507.047 1464.91 507.098 1466.64 507.149C1466.86 507.149 1467.08 507.166 1467.3 507.166C1469.19 507.234 1471.12 507.302 1473.08 507.387C1473.51 507.405 1473.94 507.421 1474.37 507.439C1476.38 507.524 1478.42 507.609 1480.51 507.711C1482 507.796 1483.5 507.881 1485.03 507.949C1486.69 508.052 1488.38 508.154 1490.09 508.256C1490.62 508.29 1491.16 508.324 1491.7 508.358C1492.89 508.426 1494.09 508.511 1495.3 508.596C1495.94 508.63 1496.58 508.682 1497.21 508.733C1498.36 508.801 1499.51 508.886 1500.66 508.971C1501.33 509.022 1501.99 509.073 1502.66 509.124C1503.86 509.227 1505.06 509.329 1506.26 509.414C1506.88 509.465 1507.5 509.516 1508.12 509.567C1509.56 509.703 1511.02 509.822 1512.49 509.959C1512.88 509.993 1513.26 510.027 1513.66 510.061C1515.5 510.231 1517.35 510.418 1519.22 510.606C1519.71 510.657 1520.21 510.708 1520.71 510.759C1522.08 510.895 1523.46 511.049 1524.84 511.202C1525.53 511.27 1526.23 511.355 1526.93 511.423C1528.14 511.559 1529.36 511.696 1530.58 511.849C1531.31 511.934 1532.04 512.019 1532.78 512.104C1534.01 512.258 1535.24 512.411 1536.47 512.564C1537.18 512.649 1537.89 512.751 1538.6 512.837C1539.98 513.024 1541.36 513.211 1542.75 513.399C1543.31 513.467 1543.86 513.552 1544.41 513.62C1546.35 513.892 1548.28 514.182 1550.22 514.471C1550.61 514.522 1550.99 514.59 1551.37 514.642C1552.93 514.88 1554.5 515.118 1556.08 515.374C1556.75 515.476 1557.42 515.595 1558.09 515.714C1559.38 515.919 1560.67 516.14 1561.96 516.362C1562.7 516.481 1563.45 516.617 1564.19 516.753C1565.43 516.975 1566.68 517.196 1567.93 517.417C1568.66 517.553 1569.4 517.69 1570.14 517.826C1571.47 518.081 1572.79 518.337 1574.12 518.609C1574.75 518.728 1575.39 518.848 1576.02 518.984C1577.93 519.358 1579.84 519.75 1581.75 520.176C1581.82 520.176 1581.9 520.193 1581.97 520.21C1583.88 520.619 1585.77 521.044 1587.67 521.487C1588.29 521.623 1588.9 521.777 1589.52 521.913C1590.85 522.219 1592.17 522.543 1593.48 522.866C1594.2 523.037 1594.91 523.224 1595.62 523.394C1596.85 523.701 1598.08 524.007 1599.3 524.331C1600.02 524.518 1600.74 524.705 1601.46 524.91C1602.73 525.25 1603.98 525.591 1605.24 525.931C1605.88 526.119 1606.53 526.289 1607.18 526.476C1608.71 526.919 1610.23 527.362 1611.75 527.822C1612.11 527.924 1612.46 528.026 1612.82 528.128C1614.68 528.69 1616.53 529.269 1618.37 529.865C1618.86 530.035 1619.35 530.206 1619.84 530.359C1621.18 530.802 1622.52 531.244 1623.85 531.704C1624.5 531.926 1625.15 532.164 1625.79 532.385C1626.96 532.811 1628.13 533.22 1629.29 533.645C1629.96 533.901 1630.63 534.139 1631.3 534.395C1632.45 534.837 1633.6 535.28 1634.73 535.723C1635.36 535.978 1636 536.217 1636.62 536.472C1637.89 536.983 1639.14 537.511 1640.39 538.039C1640.86 538.226 1641.34 538.43 1641.81 538.635C1643.51 539.367 1645.2 540.116 1646.87 540.883C1647.16 541.019 1647.45 541.172 1647.75 541.308C1649.11 541.938 1650.46 542.585 1651.79 543.232C1652.34 543.505 1652.88 543.794 1653.42 544.067C1654.5 544.612 1655.56 545.157 1656.62 545.719C1657.2 546.025 1657.79 546.349 1658.36 546.655C1659.38 547.217 1660.38 547.762 1661.37 548.341C1661.93 548.665 1662.49 548.971 1663.05 549.312C1664.09 549.925 1665.12 550.538 1666.14 551.168C1666.61 551.457 1667.08 551.747 1667.54 552.036C1669 552.956 1670.45 553.892 1671.86 554.863C1753.5 610.597 1817.21 728.026 1817.21 791.713C1817.21 794.369 1817.16 797.094 1817.09 799.852C1817.07 800.55 1817.05 801.248 1817.03 801.947C1816.95 804.603 1816.84 807.311 1816.71 810.069C1816.7 810.154 1816.7 810.24 1816.69 810.325C1816.55 813.186 1816.37 816.131 1816.18 819.094C1816.12 819.844 1816.07 820.627 1816.02 821.393C1815.83 824.135 1815.63 826.893 1815.41 829.703C1815.39 829.925 1815.38 830.146 1815.36 830.367C1815.12 833.415 1814.86 836.515 1814.59 839.648C1814.51 840.601 1814.43 841.555 1814.34 842.509C1814.12 845.029 1813.9 847.566 1813.67 850.137C1813.35 853.816 1813.01 857.528 1812.68 861.291C1812.63 861.836 1812.58 862.381 1812.53 862.926C1812.22 866.451 1811.91 869.993 1811.6 873.586C1811.6 873.62 1811.6 873.654 1811.6 873.688C1811.59 873.688 1811.59 873.688 1811.59 873.705C1811.14 878.984 1810.71 884.348 1810.31 889.78C1810.31 889.797 1810.31 889.797 1810.31 889.797C1809.92 895.008 1809.56 900.286 1809.25 905.633C1809.25 905.65 1809.25 905.684 1809.25 905.701C1808.93 911.116 1808.67 916.6 1808.47 922.117C1808.37 924.756 1808.28 927.413 1808.22 930.086V930.103C1808.09 935.569 1808.02 941.087 1808.05 946.638C1808.05 946.672 1808.05 946.706 1808.05 946.723C1808.09 955.169 1808.33 963.683 1808.83 972.249C1808.99 974.99 1809.18 977.732 1809.39 980.474C1810.06 989.005 1810.99 997.57 1812.26 1006.15C1813.04 1011.43 1813.95 1016.71 1814.99 1021.99C1815.08 1022.43 1815.15 1022.89 1815.25 1023.33C1816.4 1029.07 1817.71 1034.79 1819.2 1040.52C1819.3 1040.89 1819.4 1041.25 1819.49 1041.61C1820.15 1044.13 1820.81 1046.63 1821.47 1049.1C1821.47 1049.12 1821.47 1049.13 1821.48 1049.13C1821.63 1049.73 1821.79 1050.31 1821.95 1050.89C1822.54 1053.1 1823.12 1055.3 1823.71 1057.44C1823.71 1057.46 1823.71 1057.48 1823.72 1057.49C1824.08 1058.8 1824.43 1060.12 1824.79 1061.41C1825.18 1062.84 1825.56 1064.27 1825.95 1065.67C1825.95 1065.68 1825.96 1065.68 1825.96 1065.7C1826.35 1067.11 1826.73 1068.49 1827.12 1069.89C1827.14 1069.96 1827.15 1070.01 1827.17 1070.08C1827.5 1071.27 1827.83 1072.46 1828.16 1073.64C1828.17 1073.65 1828.17 1073.67 1828.18 1073.7C1828.37 1074.4 1828.57 1075.1 1828.77 1075.8C1829.29 1077.67 1829.82 1079.55 1830.34 1081.38C1830.35 1081.4 1830.35 1081.44 1830.36 1081.47C1830.57 1082.2 1830.78 1082.93 1830.99 1083.65C1831.52 1085.52 1832.04 1087.36 1832.57 1089.2C1833.03 1090.8 1833.48 1092.39 1833.94 1093.97C1833.95 1093.99 1833.95 1093.99 1833.95 1094C1834.42 1095.62 1834.89 1097.24 1835.35 1098.84C1835.64 1099.83 1835.93 1100.81 1836.21 1101.78C1836.22 1101.84 1836.23 1101.85 1836.24 1101.9C1837.07 1104.73 1837.89 1107.52 1838.7 1110.28C1838.71 1110.32 1838.72 1110.33 1838.73 1110.37C1838.75 1110.44 1838.76 1110.49 1838.78 1110.55C1839.97 1114.57 1841.13 1118.51 1842.29 1122.37C1842.47 1122.99 1842.64 1123.58 1842.82 1124.18C1843.63 1126.87 1844.41 1129.52 1845.2 1132.15C1847.92 1141.27 1850.54 1150.04 1853.01 1158.46C1829.84 1164.89 1803.9 1158.23 1783.48 1145C1760.96 1130.43 1743.96 1108.89 1728.06 1087.28C1698.39 1046.94 1671.03 1004.89 1646.15 961.419C1619.48 914.846 1592.87 863.777 1545.23 839.052C1504.64 818.005 1455.34 820.372 1411.56 833.586C1367.79 846.817 1327.82 869.976 1286.67 889.933C1239.53 912.802 1190.43 931.653 1140.08 946.195C1080.96 963.275 1015.37 973.935 959.487 948.153C882.897 912.819 850.42 822.619 831.921 740.355C822.427 698.141 779.835 592.683 716.118 586.706L943.107 457.341Z" fill="#DE7A3C"/>
<path d="M1652.74 427.354C1652.74 427.354 1604.74 327.721 1512.45 331.416C1420.15 335.094 1363.23 439.428 1385.08 486.409C1415.01 550.777 1599.21 621.105 1676.73 597.129C1754.26 573.135 1758.19 460.236 1730.57 436.243C1706.66 415.503 1652.74 427.354 1652.74 427.354Z" fill="#EADAB8"/>
<path d="M1565.96 459.998C1566.94 459.998 1567.89 459.98 1568.79 459.963C1601.02 459.248 1628.93 449.61 1654.09 430.453C1655.3 429.534 1655.54 427.796 1654.61 426.587C1653.69 425.361 1651.95 425.123 1650.74 426.06C1626.2 444.723 1600.12 453.748 1568.67 454.429C1560.37 454.616 1548.21 454.174 1538.65 448.265C1530.83 443.446 1524.34 433.467 1527.07 423.761C1532.18 405.506 1560.69 406.954 1569.31 407.839C1570.83 407.975 1572.19 406.886 1572.34 405.353C1572.5 403.837 1571.39 402.475 1569.87 402.322C1560.17 401.334 1528.02 399.87 1521.74 422.262C1518.28 434.608 1526.16 447.056 1535.74 452.965C1545.47 458.976 1557.16 459.998 1565.96 459.998Z" fill="#854539"/>
<path d="M707.088 249.168C698.196 244.366 681.275 231.084 665.341 211.518C658.661 203.31 650.408 190.624 642.444 192.616C634.479 194.609 634.479 219.487 637.465 231.424C640.453 243.361 645.43 261.275 645.43 261.275L707.088 249.168Z" fill="#DE7A3C"/>
<path d="M679.627 256.49C663.338 241.76 654.337 220.628 648.47 199.479C648.223 198.576 647.944 197.622 647.237 197.026C646.084 196.039 644.205 196.431 643.118 197.503C642.031 198.559 641.37 200.04 641.147 201.539C638.306 220.679 641.094 240.194 650.389 261.564L679.627 256.49Z" fill="#EADAB8"/>
<path d="M707.079 249.168C707.079 249.168 631.485 256.303 603.61 277.197C586.715 289.866 581.315 312.804 553.367 314.353C525.42 315.903 482.704 304.085 474.936 304.085C467.168 304.085 459.179 304.749 455.209 319.343C451.223 333.936 459.69 362.391 459.69 362.391C459.69 362.391 449.111 366.699 462.381 386.605C475.651 406.495 518.323 452.693 550.18 471.271C582.038 489.849 597.92 487.363 603.23 511.254C608.539 535.145 629.16 596.482 639.115 614.396C649.07 632.293 655.378 630.505 655.378 630.505C655.378 630.505 706.152 616.558 789.779 570.786C873.407 525.013 943.098 457.342 943.098 457.342C943.098 457.342 875.398 345.873 841.55 318.014C841.55 318.014 823.629 246.358 791.771 204.554C759.912 162.749 749.957 154.796 740.002 162.749C730.045 170.718 732.037 230.42 732.037 244.366L707.079 249.168Z" fill="#DE7A3C"/>
<path d="M455.949 390.316C442.662 370.409 450.634 359.801 450.634 359.801C450.634 359.801 443.991 330.614 447.977 316.021C451.963 301.41 464.875 295.722 472.643 295.722C480.394 295.722 525.427 315.901 553.375 314.352C574.842 313.16 583.014 299.367 593.303 287.276C604.273 283.751 646.347 271.202 652.4 284.16C659.369 299.094 612.576 309.039 608.595 319.988C604.612 330.937 651.403 328.945 658.372 348.851C665.341 368.758 669.324 383.692 705.165 383.692C741.004 383.692 777.84 381.699 776.846 426.484C775.849 471.269 737.592 480.124 720.098 517.042C702.177 554.862 714.125 566.799 749.964 600.635C720.097 728.025 638.462 656.369 628.506 632.478C620.621 613.577 596.648 536.284 591.338 512.393C586.029 488.519 582.046 489.847 550.187 471.269C518.331 452.691 469.219 410.222 455.949 390.316Z" fill="#EADAB8"/>
<path d="M477.597 294.923C486.83 299.198 501.032 313.382 494.642 321.181C488.253 328.997 452.761 344.613 448.502 342.484C444.226 340.356 442.097 316.924 452.761 304.868C463.407 292.795 477.597 294.923 477.597 294.923Z" fill="#402D33"/>
<path d="M575.576 446.018C575.857 446.018 576.143 445.983 576.424 445.898C577.877 445.421 578.676 443.855 578.208 442.407C572.356 424.272 545.712 413.799 519.947 403.684C512.489 400.739 504.778 397.708 497.909 394.608C469.197 381.633 454.683 361.403 454.547 361.198C453.661 359.955 451.941 359.649 450.697 360.534C449.454 361.403 449.147 363.14 450.016 364.383C450.646 365.251 465.466 386.009 495.63 399.649C502.624 402.816 510.401 405.864 517.922 408.827C542.491 418.482 567.897 428.461 572.944 444.11C573.322 445.285 574.407 446.018 575.576 446.018Z" fill="#854539"/>
<path d="M596.166 326.868C596.166 326.868 608.235 314.097 620.306 316.923C632.375 319.767 640.449 334.923 640.449 334.923C640.449 334.923 630.954 345.31 613.916 341.768C596.876 338.226 596.166 326.868 596.166 326.868Z" fill="#2D1A1E"/>
<path d="M732.034 244.365C732.034 244.365 728.317 168.929 740 162.747C752.936 155.919 769.34 190.027 776.776 229.976C784.21 269.925 775.846 315.442 760.976 323.803C755.918 326.647 750.878 321.385 748.892 315.936C746.904 310.487 747.616 304.425 749.115 298.822C750.614 293.22 752.868 287.805 753.965 282.117C755.067 276.396 754.76 269.891 750.868 265.548C749.943 271.134 748.672 276.668 747.065 282.1C746.267 284.79 745.335 287.549 743.439 289.644C741.543 291.721 738.429 292.947 735.833 291.857C733.732 290.972 732.457 288.843 731.508 286.766C725.607 273.858 730.484 258.464 732.034 244.365Z" fill="#EADAB8"/>
<path d="M609.245 322.986C612.272 322.986 612.231 330.955 609.245 331.449C606.259 331.943 605.262 322.986 609.245 322.986Z" fill="#402D33"/>
</mask>
<g mask="url(#mask0_43_125)">
<rect x="348.408" y="160" width="1736.16" height="1520.68" fill="black"/>
</g>
</g>
</g>
<defs>
<clipPath id="clip0_43_125">
<rect width="1920" height="1080" fill="white"/>
</clipPath>
</defs>
</svg>
