<svg width="48" height="49" viewBox="0 0 48 49" fill="none" xmlns="http://www.w3.org/2000/svg">
<path d="M35.4299 44.9632L22.9266 26.797L21.146 24.211L6.63732 3.1312H12.8783L24.6116 20.179L26.3921 22.7649L41.6709 44.9632H35.4299ZM44.2509 43.1887L28.5029 20.3099L26.7224 17.7224L15.4572 1.35632L14.5236 2.59226e-05H0.681015L4.05698 4.90569L19.0353 26.6688L20.8158 29.2536L32.8507 46.7397L33.7844 48.0944H47.627L44.2509 43.1887Z" fill="black"/>
<path d="M21.146 24.211L22.9266 26.797L20.8158 29.2536L4.6206 48.0944H0.626953L19.0353 26.6688L21.146 24.211Z" fill="black"/>
<path d="M45.9605 4.04385e-06L28.5028 20.3099L26.392 22.7649L24.6116 20.1789L26.7224 17.7223L38.548 3.95808L41.9668 4.04385e-06H45.9605Z" fill="black"/>
</svg>
