<svg width="54" height="63" viewBox="0 0 54 63" fill="none" xmlns="http://www.w3.org/2000/svg">
<path d="M0.516891 31.1526L8.82444 27.5181V18.1721L18.1704 23.3643L26.478 19.7298L8.82444 9.34534L0.516891 13.4991V31.1526Z" fill="black"/>
<path d="M53.9981 13.4999L46.729 9.86532L37.383 15.0575L43.6136 18.1729L-0.000976562 38.4225V48.8069L6.7489 51.9223L16.6141 47.7685L10.3835 44.1339L53.9981 24.4035V13.4999Z" fill="black"/>
<path d="M53.9998 47.7689V31.1538L46.2115 34.2691V43.6151L36.3463 38.9421L28.0387 43.6151L46.2115 52.4419L53.9998 47.7689Z" fill="black"/>
<path d="M27.5165 52.9608L22.8435 50.8839L14.0168 55.0377L27.5165 62.3068L41.0163 55.0377L33.228 50.8839L27.5165 52.9608Z" fill="black"/>
<path d="M27.5165 0L14.0168 6.74988L22.3243 11.9421L27.5165 9.34599L31.6703 11.9421L41.0163 7.78832L27.5165 0Z" fill="black"/>
</svg>
